<svg xmlns="http://www.w3.org/2000/svg" viewBox="0 0 24 24">
  <symbol id="brand" viewBox="0 0 24 24" fill="none" stroke="currentColor" stroke-width="2" stroke-linecap="round" stroke-linejoin="round">
    <path d="M12 2L2 7l10 5 10-5-10-5zM2 17l10 5 10-5M2 12l10 5 10-5" />
  </symbol>
  <symbol id="chevron" viewBox="0 0 24 24" fill="none" stroke="currentColor" stroke-linecap="round" stroke-linejoin="round">
    <polyline points="6 9 12 15 18 9" />
  </symbol>
  <symbol id="file-new" viewBox="0 0 24 24" fill="none" stroke="currentColor" stroke-linecap="round" stroke-linejoin="round">
    <path d="M14 2H6a2 2 0 0 0-2 2v16a2 2 0 0 0 2 2h12a2 2 0 0 0 2-2V8z" />
    <polyline points="14 2 14 8 20 8" />
    <line x1="12" y1="18" x2="12" y2="12" />
    <line x1="9" y1="15" x2="15" y2="15" />
  </symbol>
  <symbol id="folder-open" viewBox="0 0 24 24" fill="none" stroke="currentColor" stroke-linecap="round" stroke-linejoin="round">
    <path d="M22 19a2 2 0 0 1-2 2H4a2 2 0 0 1-2-2V5a2 2 0 0 1 2-2h5l2 3h9a2 2 0 0 1 2 2z" />
  </symbol>
  <symbol id="download" viewBox="0 0 24 24" fill="none" stroke="currentColor" stroke-linecap="round" stroke-linejoin="round">
    <path d="M21 15v4a2 2 0 0 1-2 2H5a2 2 0 0 1-2-2v-4" />
    <polyline points="7 10 12 15 17 10" />
    <line x1="12" y1="15" x2="12" y2="3" />
  </symbol>
  <symbol id="undo" viewBox="0 0 24 24" fill="none" stroke="currentColor" stroke-linecap="round" stroke-linejoin="round">
    <path d="M3 7v6h6" />
    <path d="M21 17a9 9 0 0 0-9-9 9 9 0 0 0-6 2.3L3 13" />
  </symbol>
  <symbol id="redo" viewBox="0 0 24 24" fill="none" stroke="currentColor" stroke-linecap="round" stroke-linejoin="round">
    <path d="M21 7v6h-6" />
    <path d="M3 17a9 9 0 0 1 9-9 9 9 0 0 1 6 2.3l3 2.7" />
  </symbol>
  <symbol id="clock" viewBox="0 0 24 24" fill="none" stroke="currentColor" stroke-linecap="round" stroke-linejoin="round">
    <circle cx="12" cy="12" r="10" />
    <polyline points="12 6 12 12 16 14" />
  </symbol>
  <symbol id="sidebar" viewBox="0 0 24 24" fill="none" stroke="currentColor">
    <rect x="3" y="3" width="18" height="18" rx="2" ry="2" />
    <line x1="15" y1="3" x2="15" y2="21" />
  </symbol>
  <symbol id="copy" viewBox="0 0 24 24" fill="none" stroke="currentColor" stroke-linecap="round" stroke-linejoin="round">
    <rect x="9" y="9" width="13" height="13" rx="2" ry="2" />
    <path d="M5 15H4a2 2 0 0 1-2-2V4a2 2 0 0 1 2-2h9a2 2 0 0 1 2 2v1" />
  </symbol>
  <symbol id="arrows" viewBox="0 0 24 24" fill="none" stroke="currentColor" stroke-linecap="round" stroke-linejoin="round">
    <polyline points="16 18 22 12 16 6" />
    <polyline points="8 6 2 12 8 18" />
  </symbol>
</svg>

